<mxfile host="app.diagrams.net" modified="2020-10-27T04:43:07.477Z" agent="5.0 (Windows NT 10.0; Win64; x64) AppleWebKit/537.36 (KHTML, like Gecko) Chrome/85.0.4183.121 Safari/537.36 OPR/71.0.3770.284" etag="MQApYgHf5qhtIiWdQ6WX" version="13.8.3" type="github">
  <diagram id="rZBaU04stiPMk3SZJmmc" name="Page-1">
    <mxGraphModel dx="998" dy="2248" grid="1" gridSize="10" guides="1" tooltips="1" connect="1" arrows="1" fold="1" page="1" pageScale="1" pageWidth="1100" pageHeight="1700" math="0" shadow="0">
      <root>
        <mxCell id="0" />
        <mxCell id="1" parent="0" />
        <mxCell id="Vi-9CoD4SaAg4djCjcxH-50" value="" style="rounded=0;whiteSpace=wrap;html=1;" parent="1" vertex="1">
          <mxGeometry x="570" y="-220" width="820" height="920" as="geometry" />
        </mxCell>
        <mxCell id="Vi-9CoD4SaAg4djCjcxH-51" value="Customer" style="shape=umlActor;verticalLabelPosition=bottom;verticalAlign=top;html=1;labelPosition=center;align=center;" parent="1" vertex="1">
          <mxGeometry x="340" y="190" width="30" height="50" as="geometry" />
        </mxCell>
        <mxCell id="Vi-9CoD4SaAg4djCjcxH-54" value="Chat" style="ellipse;whiteSpace=wrap;html=1;" parent="1" vertex="1">
          <mxGeometry x="680" y="70" width="100" height="60" as="geometry" />
        </mxCell>
        <mxCell id="Vi-9CoD4SaAg4djCjcxH-56" value="Trainer" style="shape=umlActor;verticalLabelPosition=bottom;verticalAlign=top;html=1;labelPosition=center;align=center;" parent="1" vertex="1">
          <mxGeometry x="1560" y="-10" width="30" height="50" as="geometry" />
        </mxCell>
        <mxCell id="Vi-9CoD4SaAg4djCjcxH-57" value="Admin" style="shape=umlActor;verticalLabelPosition=bottom;verticalAlign=top;html=1;labelPosition=center;align=center;" parent="1" vertex="1">
          <mxGeometry x="1560" y="240" width="30" height="50" as="geometry" />
        </mxCell>
        <mxCell id="Vi-9CoD4SaAg4djCjcxH-58" value="Study Lesson" style="ellipse;whiteSpace=wrap;html=1;" parent="1" vertex="1">
          <mxGeometry x="680" y="270" width="100" height="60" as="geometry" />
        </mxCell>
        <mxCell id="Vi-9CoD4SaAg4djCjcxH-60" value="Booking" style="ellipse;whiteSpace=wrap;html=1;" parent="1" vertex="1">
          <mxGeometry x="680" y="390" width="100" height="60" as="geometry" />
        </mxCell>
        <mxCell id="Vi-9CoD4SaAg4djCjcxH-61" value="Upload Lesson" style="ellipse;whiteSpace=wrap;html=1;" parent="1" vertex="1">
          <mxGeometry x="980" y="-80" width="100" height="60" as="geometry" />
        </mxCell>
        <mxCell id="Vi-9CoD4SaAg4djCjcxH-65" value="Manage review" style="ellipse;whiteSpace=wrap;html=1;" parent="1" vertex="1">
          <mxGeometry x="1200" y="220" width="100" height="60" as="geometry" />
        </mxCell>
        <mxCell id="Vi-9CoD4SaAg4djCjcxH-66" value="Manage Booking" style="ellipse;whiteSpace=wrap;html=1;" parent="1" vertex="1">
          <mxGeometry x="1200" y="120" width="100" height="60" as="geometry" />
        </mxCell>
        <mxCell id="Vi-9CoD4SaAg4djCjcxH-67" value="Manage Trainer" style="ellipse;whiteSpace=wrap;html=1;" parent="1" vertex="1">
          <mxGeometry x="1200" y="310" width="100" height="60" as="geometry" />
        </mxCell>
        <mxCell id="Vi-9CoD4SaAg4djCjcxH-68" value="Manager Customer" style="ellipse;whiteSpace=wrap;html=1;" parent="1" vertex="1">
          <mxGeometry x="1200" y="400" width="100" height="60" as="geometry" />
        </mxCell>
        <mxCell id="Vi-9CoD4SaAg4djCjcxH-72" value="" style="endArrow=none;endSize=12;html=1;exitX=1;exitY=0.3333333333333333;exitDx=0;exitDy=0;exitPerimeter=0;entryX=0;entryY=0.5;entryDx=0;entryDy=0;endFill=0;" parent="1" source="Vi-9CoD4SaAg4djCjcxH-51" target="Vi-9CoD4SaAg4djCjcxH-54" edge="1">
          <mxGeometry width="160" relative="1" as="geometry">
            <mxPoint x="420" y="316.6666666666665" as="sourcePoint" />
            <mxPoint x="679.9999999999923" y="203.33333333333348" as="targetPoint" />
            <Array as="points" />
          </mxGeometry>
        </mxCell>
        <mxCell id="Vi-9CoD4SaAg4djCjcxH-73" value="" style="endArrow=none;endSize=12;html=1;exitX=1;exitY=1;exitDx=0;exitDy=0;exitPerimeter=0;entryX=0;entryY=1;entryDx=0;entryDy=0;endFill=0;" parent="1" source="Vi-9CoD4SaAg4djCjcxH-51" target="Vi-9CoD4SaAg4djCjcxH-58" edge="1">
          <mxGeometry x="-0.053" y="-2" width="160" relative="1" as="geometry">
            <mxPoint x="420" y="316.6666666666665" as="sourcePoint" />
            <mxPoint x="709.9999999999923" y="220.00333333333356" as="targetPoint" />
            <Array as="points" />
            <mxPoint as="offset" />
          </mxGeometry>
        </mxCell>
        <mxCell id="Vi-9CoD4SaAg4djCjcxH-75" value="" style="endArrow=none;endSize=12;html=1;exitX=1;exitY=1;exitDx=0;exitDy=0;exitPerimeter=0;entryX=0;entryY=0.5;entryDx=0;entryDy=0;endFill=0;" parent="1" source="Vi-9CoD4SaAg4djCjcxH-51" target="Vi-9CoD4SaAg4djCjcxH-60" edge="1">
          <mxGeometry width="160" relative="1" as="geometry">
            <mxPoint x="420" y="350" as="sourcePoint" />
            <mxPoint x="759.9999999999923" y="323.3333333333335" as="targetPoint" />
            <Array as="points" />
          </mxGeometry>
        </mxCell>
        <mxCell id="Vi-9CoD4SaAg4djCjcxH-83" value="" style="endArrow=none;endSize=12;html=1;exitX=0;exitY=1;exitDx=0;exitDy=0;exitPerimeter=0;entryX=1;entryY=0;entryDx=0;entryDy=0;endFill=0;" parent="1" source="Vi-9CoD4SaAg4djCjcxH-57" target="Vi-9CoD4SaAg4djCjcxH-68" edge="1">
          <mxGeometry width="160" relative="1" as="geometry">
            <mxPoint x="1310" y="530" as="sourcePoint" />
            <mxPoint x="1569.9999999999923" y="413.3333333333335" as="targetPoint" />
            <Array as="points" />
          </mxGeometry>
        </mxCell>
        <mxCell id="Vi-9CoD4SaAg4djCjcxH-84" value="" style="endArrow=none;endSize=12;html=1;exitX=0;exitY=0.3333333333333333;exitDx=0;exitDy=0;exitPerimeter=0;entryX=1;entryY=0.5;entryDx=0;entryDy=0;endFill=0;" parent="1" source="Vi-9CoD4SaAg4djCjcxH-57" target="Vi-9CoD4SaAg4djCjcxH-67" edge="1">
          <mxGeometry width="160" relative="1" as="geometry">
            <mxPoint x="1220" y="190" as="sourcePoint" />
            <mxPoint x="1479.9999999999923" y="73.33333333333348" as="targetPoint" />
            <Array as="points" />
          </mxGeometry>
        </mxCell>
        <mxCell id="Vi-9CoD4SaAg4djCjcxH-85" value="" style="endArrow=none;endSize=12;html=1;exitX=0;exitY=0.3333333333333333;exitDx=0;exitDy=0;exitPerimeter=0;entryX=1;entryY=0.5;entryDx=0;entryDy=0;endFill=0;" parent="1" source="Vi-9CoD4SaAg4djCjcxH-57" target="Vi-9CoD4SaAg4djCjcxH-65" edge="1">
          <mxGeometry width="160" relative="1" as="geometry">
            <mxPoint x="1240" y="170" as="sourcePoint" />
            <mxPoint x="1499.9999999999923" y="53.333333333333485" as="targetPoint" />
            <Array as="points" />
          </mxGeometry>
        </mxCell>
        <mxCell id="Vi-9CoD4SaAg4djCjcxH-86" value="" style="endArrow=none;endSize=12;html=1;exitX=0;exitY=0.3333333333333333;exitDx=0;exitDy=0;exitPerimeter=0;entryX=1;entryY=0.5;entryDx=0;entryDy=0;endFill=0;" parent="1" source="Vi-9CoD4SaAg4djCjcxH-57" target="Vi-9CoD4SaAg4djCjcxH-66" edge="1">
          <mxGeometry x="-0.0568" y="-7" width="160" relative="1" as="geometry">
            <mxPoint x="1230" y="120" as="sourcePoint" />
            <mxPoint x="1489.9999999999923" y="3.333333333333485" as="targetPoint" />
            <Array as="points" />
            <mxPoint as="offset" />
          </mxGeometry>
        </mxCell>
        <mxCell id="Vi-9CoD4SaAg4djCjcxH-88" value="" style="endArrow=none;endSize=12;html=1;exitX=0;exitY=0.3333333333333333;exitDx=0;exitDy=0;exitPerimeter=0;entryX=1;entryY=0.5;entryDx=0;entryDy=0;endFill=0;" parent="1" source="Vi-9CoD4SaAg4djCjcxH-56" target="Vi-9CoD4SaAg4djCjcxH-61" edge="1">
          <mxGeometry width="160" relative="1" as="geometry">
            <mxPoint x="1070" y="-20" as="sourcePoint" />
            <mxPoint x="1329.9999999999923" y="-136.66666666666652" as="targetPoint" />
            <Array as="points" />
          </mxGeometry>
        </mxCell>
        <mxCell id="Vi-9CoD4SaAg4djCjcxH-90" value="Update Trainer Information" style="ellipse;whiteSpace=wrap;html=1;" parent="1" vertex="1">
          <mxGeometry x="1020" y="-10" width="100" height="60" as="geometry" />
        </mxCell>
        <mxCell id="Vi-9CoD4SaAg4djCjcxH-95" value="" style="endArrow=none;endSize=12;html=1;exitX=0;exitY=0.3333333333333333;exitDx=0;exitDy=0;exitPerimeter=0;entryX=1;entryY=0.5;entryDx=0;entryDy=0;endFill=0;" parent="1" source="Vi-9CoD4SaAg4djCjcxH-56" target="Vi-9CoD4SaAg4djCjcxH-90" edge="1">
          <mxGeometry width="160" relative="1" as="geometry">
            <mxPoint x="1040" y="20" as="sourcePoint" />
            <mxPoint x="550" y="-36.66666666666674" as="targetPoint" />
            <Array as="points" />
          </mxGeometry>
        </mxCell>
        <mxCell id="Vi-9CoD4SaAg4djCjcxH-96" value="Upload schedule" style="ellipse;whiteSpace=wrap;html=1;" parent="1" vertex="1">
          <mxGeometry x="970" y="-160" width="100" height="60" as="geometry" />
        </mxCell>
        <mxCell id="Vi-9CoD4SaAg4djCjcxH-97" value="" style="endArrow=none;endSize=12;html=1;exitX=0;exitY=0.3333333333333333;exitDx=0;exitDy=0;exitPerimeter=0;entryX=1;entryY=0.5;entryDx=0;entryDy=0;endFill=0;" parent="1" source="Vi-9CoD4SaAg4djCjcxH-56" target="Vi-9CoD4SaAg4djCjcxH-96" edge="1">
          <mxGeometry width="160" relative="1" as="geometry">
            <mxPoint x="1100" y="-130" as="sourcePoint" />
            <mxPoint x="610" y="-186.66666666666674" as="targetPoint" />
            <Array as="points" />
          </mxGeometry>
        </mxCell>
        <mxCell id="Vi-9CoD4SaAg4djCjcxH-107" value="PT ONLINE&amp;nbsp;" style="text;html=1;strokeColor=none;fillColor=none;align=center;verticalAlign=middle;whiteSpace=wrap;rounded=0;" parent="1" vertex="1">
          <mxGeometry x="1280" y="660" width="80" height="20" as="geometry" />
        </mxCell>
        <mxCell id="Vi-9CoD4SaAg4djCjcxH-108" value="Review" style="ellipse;whiteSpace=wrap;html=1;" parent="1" vertex="1">
          <mxGeometry x="680" y="510" width="100" height="60" as="geometry" />
        </mxCell>
        <mxCell id="Vi-9CoD4SaAg4djCjcxH-109" value="" style="endArrow=none;endSize=12;html=1;exitX=1;exitY=1;exitDx=0;exitDy=0;exitPerimeter=0;entryX=0;entryY=0.5;entryDx=0;entryDy=0;endFill=0;" parent="1" source="Vi-9CoD4SaAg4djCjcxH-51" target="Vi-9CoD4SaAg4djCjcxH-108" edge="1">
          <mxGeometry x="0.0568" y="8" width="160" relative="1" as="geometry">
            <mxPoint x="420" y="350" as="sourcePoint" />
            <mxPoint x="729.9999999999939" y="440" as="targetPoint" />
            <Array as="points" />
            <mxPoint as="offset" />
          </mxGeometry>
        </mxCell>
        <mxCell id="Vi-9CoD4SaAg4djCjcxH-115" value="Review Excercise" style="ellipse;whiteSpace=wrap;html=1;" parent="1" vertex="1">
          <mxGeometry x="900" y="-220" width="100" height="60" as="geometry" />
        </mxCell>
        <mxCell id="Vi-9CoD4SaAg4djCjcxH-116" value="" style="endArrow=none;endSize=12;html=1;exitX=0;exitY=0.3333333333333333;exitDx=0;exitDy=0;exitPerimeter=0;entryX=1;entryY=0.5;entryDx=0;entryDy=0;endFill=0;" parent="1" source="Vi-9CoD4SaAg4djCjcxH-56" target="Vi-9CoD4SaAg4djCjcxH-115" edge="1">
          <mxGeometry width="160" relative="1" as="geometry">
            <mxPoint x="1490" y="-53.33" as="sourcePoint" />
            <mxPoint x="890" y="-189.99666666666695" as="targetPoint" />
            <Array as="points" />
          </mxGeometry>
        </mxCell>
        <mxCell id="CPhLp9ePI8ad5RfExE07-2" value="Login" style="ellipse;whiteSpace=wrap;html=1;" parent="1" vertex="1">
          <mxGeometry x="680" y="-10" width="100" height="60" as="geometry" />
        </mxCell>
        <mxCell id="CPhLp9ePI8ad5RfExE07-3" value="" style="endArrow=none;endSize=12;html=1;exitX=1;exitY=0.3333333333333333;exitDx=0;exitDy=0;exitPerimeter=0;endFill=0;entryX=0;entryY=0.5;entryDx=0;entryDy=0;" parent="1" source="Vi-9CoD4SaAg4djCjcxH-51" target="CPhLp9ePI8ad5RfExE07-2" edge="1">
          <mxGeometry width="160" relative="1" as="geometry">
            <mxPoint x="380" y="90" as="sourcePoint" />
            <mxPoint x="690.0000000000002" y="-6.666666666666515" as="targetPoint" />
            <Array as="points" />
          </mxGeometry>
        </mxCell>
        <mxCell id="wiIulz-KIa0vOxazkHKO-1" value="Manage Excercise" style="ellipse;whiteSpace=wrap;html=1;" vertex="1" parent="1">
          <mxGeometry x="920" y="180" width="100" height="60" as="geometry" />
        </mxCell>
        <mxCell id="wiIulz-KIa0vOxazkHKO-2" value="" style="endArrow=none;endSize=12;html=1;exitX=1;exitY=0.3333333333333333;exitDx=0;exitDy=0;exitPerimeter=0;entryX=0;entryY=0.5;entryDx=0;entryDy=0;endFill=0;" edge="1" parent="1" source="Vi-9CoD4SaAg4djCjcxH-51" target="wiIulz-KIa0vOxazkHKO-3">
          <mxGeometry x="-0.053" y="-2" width="160" relative="1" as="geometry">
            <mxPoint x="520" y="210" as="sourcePoint" />
            <mxPoint x="844.6446609406728" y="291.21320343559637" as="targetPoint" />
            <Array as="points" />
            <mxPoint as="offset" />
          </mxGeometry>
        </mxCell>
        <mxCell id="wiIulz-KIa0vOxazkHKO-3" value="Upload Excercise" style="ellipse;whiteSpace=wrap;html=1;" vertex="1" parent="1">
          <mxGeometry x="700" y="180" width="100" height="60" as="geometry" />
        </mxCell>
        <mxCell id="wiIulz-KIa0vOxazkHKO-4" value="Extends" style="endArrow=block;endSize=16;endFill=0;html=1;exitX=0;exitY=0.5;exitDx=0;exitDy=0;entryX=1;entryY=0.5;entryDx=0;entryDy=0;" edge="1" parent="1" source="wiIulz-KIa0vOxazkHKO-1" target="wiIulz-KIa0vOxazkHKO-3">
          <mxGeometry width="160" relative="1" as="geometry">
            <mxPoint x="800" y="340" as="sourcePoint" />
            <mxPoint x="960" y="340" as="targetPoint" />
            <Array as="points" />
          </mxGeometry>
        </mxCell>
      </root>
    </mxGraphModel>
  </diagram>
</mxfile>
